<svg width="13.000000" height="13.000000" viewBox="0 0 13 13" fill="none" xmlns="http://www.w3.org/2000/svg" xmlns:xlink="http://www.w3.org/1999/xlink">
	<desc>
			Created with Pixso.
	</desc>
	<defs/>
	<mask id="mask1_34" mask-type="alpha" maskUnits="userSpaceOnUse" x="-0.750000" y="-0.750000" width="13.500000" height="13.500000">
		<path id="Vector" d="M7.94 12.75L7.94 7.84L9.6 7.84L9.85 5.98L7.94 5.98L7.94 4.77C7.94 4.22 8.09 3.85 8.89 3.85L9.93 3.85L9.93 2.13C9.76 2.11 9.14 2.06 8.44 2.06C6.97 2.06 5.98 2.95 5.98 4.57L5.98 5.98L4.31 5.98L4.31 7.84L5.97 7.84L5.97 12.75L0.37 12.75C-0.25 12.75 -0.75 12.24 -0.75 11.62L-0.75 0.37C-0.75 -0.25 -0.25 -0.75 0.37 -0.75L11.62 -0.75C12.24 -0.75 12.75 -0.25 12.75 0.37L12.75 11.62C12.75 12.24 12.24 12.75 11.62 12.75L7.94 12.75Z" fill="#FFFFFF" fill-opacity="1.000000" fill-rule="nonzero"/>
	</mask>
	<g mask="url(#mask1_34)">
		<path id="icon" d="M7.94 12.75L7.94 7.84L9.6 7.84L9.85 5.98L7.94 5.98L7.94 4.77C7.94 4.22 8.09 3.85 8.89 3.85L9.93 3.85L9.93 2.13C9.76 2.11 9.14 2.06 8.44 2.06C6.97 2.06 5.98 2.95 5.98 4.57L5.98 5.98L4.31 5.98L4.31 7.84L5.97 7.84L5.97 12.75L0.37 12.75C-0.25 12.75 -0.75 12.24 -0.75 11.62L-0.75 0.37C-0.75 -0.25 -0.25 -0.75 0.37 -0.75L11.62 -0.75C12.24 -0.75 12.75 -0.25 12.75 0.37L12.75 11.62C12.75 12.24 12.24 12.75 11.62 12.75L7.94 12.75Z" fill="#FFFFFF" fill-opacity="1.000000" fill-rule="nonzero"/>
	</g>
</svg>
