<svg width="13.000000" height="11.000000" viewBox="0 0 13 11" fill="none" xmlns="http://www.w3.org/2000/svg" xmlns:xlink="http://www.w3.org/1999/xlink">
	<desc>
			Created with Pixso.
	</desc>
	<defs/>
	<path id="icon" d="M12.75 0.67C12.25 0.89 11.71 1.04 11.15 1.11C11.73 0.76 12.17 0.22 12.37 -0.43C11.84 -0.11 11.24 0.12 10.61 0.25C10.11 -0.29 9.39 -0.63 8.59 -0.63C7.06 -0.63 5.82 0.61 5.82 2.14C5.82 2.36 5.85 2.57 5.89 2.77C3.59 2.66 1.55 1.55 0.19 -0.12C-0.05 0.29 -0.19 0.76 -0.19 1.27C-0.19 2.23 0.3 3.08 1.04 3.58C0.59 3.56 0.16 3.44 -0.21 3.23C-0.21 3.24 -0.21 3.25 -0.21 3.26C-0.21 4.61 0.74 5.73 2.01 5.98C1.78 6.04 1.53 6.08 1.28 6.08C1.1 6.08 0.93 6.06 0.76 6.03C1.11 7.13 2.13 7.93 3.35 7.95C2.4 8.7 1.2 9.14 -0.09 9.14C-0.32 9.14 -0.54 9.12 -0.75 9.1C0.47 9.88 1.93 10.34 3.49 10.34C8.59 10.34 11.37 6.12 11.37 2.46C11.37 2.34 11.37 2.22 11.36 2.1C11.9 1.71 12.37 1.22 12.75 0.67Z" fill="#FFFFFF" fill-opacity="1.000000" fill-rule="evenodd"/>
</svg>
