<svg width="13.000000" height="13.000000" viewBox="0 0 13 13" fill="none" xmlns="http://www.w3.org/2000/svg" xmlns:xlink="http://www.w3.org/1999/xlink">
	<desc>
			Created with Pixso.
	</desc>
	<defs/>
	<path id="icon" d="M-0.75 3.14C-0.75 0.99 0.99 -0.75 3.14 -0.75L8.85 -0.75C11 -0.75 12.75 0.99 12.75 3.14L12.75 8.85C12.75 11 11 12.75 8.85 12.75L3.14 12.75C0.99 12.75 -0.75 11 -0.75 8.85L-0.75 3.14ZM0.47 3.26L0.47 8.73C0.47 10.28 1.72 11.52 3.26 11.52L8.73 11.52C10.28 11.52 11.52 10.27 11.52 8.73L11.52 3.26C11.52 1.71 10.27 0.47 8.73 0.47L3.26 0.47C1.71 0.47 0.47 1.72 0.47 3.26ZM6 9.43C4.1 9.43 2.56 7.89 2.56 6C2.56 4.1 4.1 2.56 6 2.56C7.89 2.56 9.43 4.1 9.43 6C9.43 7.89 7.89 9.43 6 9.43ZM6 8.21C7.22 8.21 8.21 7.22 8.21 6C8.21 4.77 7.22 3.78 6 3.78C4.77 3.78 3.78 4.77 3.78 6C3.78 7.22 4.77 8.21 6 8.21ZM9.54 3.2C9.09 3.2 8.73 2.84 8.73 2.39C8.73 1.94 9.09 1.57 9.54 1.57C9.99 1.57 10.36 1.94 10.36 2.39C10.36 2.84 9.99 3.2 9.54 3.2Z" fill="#FFFFFF" fill-opacity="1.000000" fill-rule="evenodd"/>
</svg>
