<svg width="13.000000" height="13.000000" viewBox="0 0 13 13" fill="none" xmlns="http://www.w3.org/2000/svg" xmlns:xlink="http://www.w3.org/1999/xlink">
	<desc>
			Created with Pixso.
	</desc>
	<defs/>
	<mask id="mask1_41" mask-type="alpha" maskUnits="userSpaceOnUse" x="-0.750000" y="-0.750000" width="13.500000" height="13.500000">
		<path id="Vector" d="M6 -0.75C2.27 -0.75 -0.75 2.27 -0.75 6C-0.75 8.86 1.02 11.3 3.54 12.28C3.48 11.75 3.42 10.93 3.56 10.34C3.68 9.82 4.35 6.99 4.35 6.99C4.35 6.99 4.15 6.58 4.15 5.99C4.15 5.05 4.69 4.35 5.37 4.35C5.94 4.35 6.22 4.78 6.22 5.3C6.22 5.88 5.85 6.74 5.66 7.55C5.51 8.22 6 8.77 6.66 8.77C7.86 8.77 8.79 7.5 8.79 5.67C8.79 4.06 7.63 2.93 5.97 2.93C4.05 2.93 2.92 4.37 2.92 5.86C2.92 6.44 3.14 7.06 3.42 7.4C3.48 7.46 3.48 7.52 3.47 7.59C3.42 7.81 3.3 8.26 3.28 8.36C3.25 8.48 3.18 8.51 3.06 8.45C2.21 8.06 1.68 6.82 1.68 5.83C1.68 3.7 3.23 1.75 6.14 1.75C8.49 1.75 10.31 3.42 10.31 5.65C10.31 7.97 8.84 9.84 6.8 9.84C6.12 9.84 5.48 9.49 5.26 9.07C5.26 9.07 4.92 10.36 4.83 10.68C4.68 11.26 4.27 12 4 12.44C4.63 12.64 5.3 12.75 6 12.75C9.72 12.75 12.75 9.72 12.75 6C12.75 2.27 9.72 -0.75 6 -0.75Z" fill="#FFFFFF" fill-opacity="1.000000" fill-rule="nonzero"/>
	</mask>
	<g mask="url(#mask1_41)">
		<path id="icon" d="M6 -0.75C2.27 -0.75 -0.75 2.27 -0.75 6C-0.75 8.86 1.02 11.3 3.54 12.28C3.48 11.75 3.42 10.93 3.56 10.34C3.68 9.82 4.35 6.99 4.35 6.99C4.35 6.99 4.15 6.58 4.15 5.99C4.15 5.05 4.69 4.35 5.37 4.35C5.94 4.35 6.22 4.78 6.22 5.3C6.22 5.88 5.85 6.74 5.66 7.55C5.51 8.22 6 8.77 6.66 8.77C7.86 8.77 8.79 7.5 8.79 5.67C8.79 4.06 7.63 2.93 5.97 2.93C4.05 2.93 2.92 4.37 2.92 5.86C2.92 6.44 3.14 7.06 3.42 7.4C3.48 7.46 3.48 7.52 3.47 7.59C3.42 7.81 3.3 8.26 3.28 8.36C3.25 8.48 3.18 8.51 3.06 8.45C2.21 8.06 1.68 6.82 1.68 5.83C1.68 3.7 3.23 1.75 6.14 1.75C8.49 1.75 10.31 3.42 10.31 5.65C10.31 7.97 8.84 9.84 6.8 9.84C6.12 9.84 5.48 9.49 5.26 9.07C5.26 9.07 4.92 10.36 4.83 10.68C4.68 11.26 4.27 12 4 12.44C4.63 12.64 5.3 12.75 6 12.75C9.72 12.75 12.75 9.72 12.75 6C12.75 2.27 9.72 -0.75 6 -0.75Z" fill="#FFFFFF" fill-opacity="1.000000" fill-rule="nonzero"/>
	</g>
</svg>
