<svg width="15.000000" height="11.000000" viewBox="0 0 15 11" fill="none" xmlns="http://www.w3.org/2000/svg" xmlns:xlink="http://www.w3.org/1999/xlink">
	<desc>
			Created with Pixso.
	</desc>
	<defs/>
	<mask id="mask1_27" mask-type="alpha" maskUnits="userSpaceOnUse" x="-0.312500" y="-0.625000" width="14.625000" height="11.250000">
		<path id="Vector" d="M7 -0.63C9.11 -0.63 10.99 -0.41 12.13 -0.24C13.07 -0.1 13.84 0.61 14.01 1.55C14.16 2.35 14.31 3.53 14.31 5C14.31 6.46 14.16 7.64 14.01 8.44C13.84 9.38 13.07 10.1 12.13 10.23C10.98 10.4 9.1 10.62 7 10.62C4.89 10.62 3.01 10.4 1.86 10.23C0.92 10.1 0.16 9.38 -0.02 8.44C-0.17 7.64 -0.32 6.46 -0.32 5C-0.32 3.53 -0.17 2.35 -0.02 1.55C0.16 0.61 0.92 -0.1 1.86 -0.24C3 -0.41 4.88 -0.63 7 -0.63ZM5.31 1.78L5.31 8.21L6.15 7.74L10.09 5.49L10.93 5L10.09 4.5L6.15 2.25L5.31 1.78Z" fill="#FFFFFF" fill-opacity="1.000000" fill-rule="nonzero"/>
	</mask>
	<g mask="url(#mask1_27)">
		<path id="Mask" d="M7 -0.63C9.11 -0.63 10.99 -0.41 12.13 -0.24C13.07 -0.1 13.84 0.61 14.01 1.55C14.16 2.35 14.31 3.53 14.31 5C14.31 6.46 14.16 7.64 14.01 8.44C13.84 9.38 13.07 10.1 12.13 10.23C10.98 10.4 9.1 10.62 7 10.62C4.89 10.62 3.01 10.4 1.86 10.23C0.92 10.1 0.16 9.38 -0.02 8.44C-0.17 7.64 -0.32 6.46 -0.32 5C-0.32 3.53 -0.17 2.35 -0.02 1.55C0.16 0.61 0.92 -0.1 1.86 -0.24C3 -0.41 4.88 -0.63 7 -0.63ZM5.31 1.78L5.31 8.21L6.15 7.74L10.09 5.49L10.93 5L10.09 4.5L6.15 2.25L5.31 1.78Z" fill="#FFFFFF" fill-opacity="1.000000" fill-rule="nonzero"/>
	</g>
</svg>
