<svg width="24.000000" height="24.000000" viewBox="0 0 24 24" fill="none" xmlns="http://www.w3.org/2000/svg" xmlns:xlink="http://www.w3.org/1999/xlink">
	<desc>
			Created with Pixso.
	</desc>
	<defs>
		<clipPath id="clip23_2751">
			<rect id="gardening tool" width="24.000000" height="24.000000" transform="translate(0.000000 -0.500000)" fill="white" fill-opacity="0"/>
		</clipPath>
	</defs>
	<rect id="gardening tool" width="24.000000" height="24.000000" transform="translate(0.000000 -0.500000)" fill="#FFFFFF" fill-opacity="0"/>
	<g clip-path="url(#clip23_2751)">
		<path id="Vector" d="M10.25 4.12L8.72 2.71C8.42 2.42 7.93 2.42 7.62 2.71L6.1 4.12C5.4 4.77 5 5.68 5 6.63L5 12.62C5 13.1 5.39 13.51 5.87 13.51L7.66 13.51L7.66 15.08C7.26 15.27 6.94 15.68 6.94 16.17L6.94 19.31C6.94 19.97 7.5 20.5 8.17 20.5L8.17 20.5C8.84 20.5 9.37 19.97 9.37 19.31L9.37 16.17C9.37 15.68 9.09 15.27 8.69 15.08L8.69 13.5L8.69 10.98C8.69 10.79 8.84 10.66 9.03 10.66L9.03 10.66C9.22 10.66 9.37 10.79 9.37 10.98L9.37 13.51L10.46 13.51C10.94 13.51 11.36 13.1 11.36 12.62L11.36 6.63C11.36 5.68 10.95 4.77 10.25 4.12ZM18.49 2.92L18.45 2.92C18.15 2.92 17.92 3.14 17.92 3.43L17.92 6.2C17.92 6.61 17.58 6.95 17.17 6.95L17.17 6.95C16.76 6.95 16.41 6.61 16.41 6.2L16.41 3.43C16.41 3.14 16.2 2.92 15.9 2.92L15.9 2.92C15.6 2.92 15.38 3.14 15.38 3.43L15.38 6.2C15.38 6.61 15.04 6.95 14.63 6.95L14.63 6.95C14.22 6.95 13.9 6.61 13.9 6.2L13.9 3.43C13.9 3.14 13.65 2.92 13.36 2.92L13.36 2.92C13.06 2.92 12.83 3.14 12.83 3.43L12.83 12.58C12.83 13.08 13.24 13.51 13.74 13.51L15.42 13.51L15.42 15.08C14.98 15.27 14.7 15.68 14.7 16.17L14.7 19.31C14.7 19.97 15.25 20.5 15.92 20.5L15.92 20.5C16.59 20.5 17.13 19.97 17.13 19.31L17.13 16.17C17.13 15.68 16.85 15.27 16.41 15.08L16.41 10.94C16.49 10.77 16.59 10.64 16.77 10.64C16.96 10.64 17.13 10.79 17.13 10.98L17.13 13.51L18.11 13.51C18.61 13.51 19 13.08 19 12.58L19 3.43C19 3.14 18.78 2.92 18.49 2.92Z" fill="#359740" fill-opacity="1.000000" fill-rule="nonzero"/>
	</g>
</svg>
