<svg width="20.000000" height="22.000000" viewBox="0 0 20 22" fill="none" xmlns="http://www.w3.org/2000/svg" xmlns:xlink="http://www.w3.org/1999/xlink">
	<desc>
			Created with Pixso.
	</desc>
	<defs/>
	<path id="Vector" d="M19.81 20.86C19.92 20.69 19.96 20.49 19.91 20.29C19.87 20.1 19.76 19.93 19.59 19.82C18.78 19.3 17.84 18.68 16.83 17.98C17.22 16.4 17.48 14.79 17.59 13.16C17.75 10.29 17.26 7.98 16.12 6.16C13.91 2.66 9.69 1.8 6.3 1.1C4.22 0.68 2.25 0.28 1.45 -0.62C1.35 -0.72 1.23 -0.8 1.09 -0.84C0.96 -0.88 0.81 -0.88 0.68 -0.84C0.54 -0.8 0.42 -0.72 0.33 -0.61C0.23 -0.5 0.17 -0.37 0.15 -0.23C0.06 0.22 -1.41 10.61 4.09 16.07C6.8 18.76 10.69 19.75 15.69 19.02C16.81 19.83 17.86 20.49 18.78 21.08C18.94 21.18 19.15 21.22 19.34 21.18C19.53 21.14 19.7 21.02 19.81 20.86ZM5.13 15.01C1.25 11.17 1.34 4.16 1.5 1.28C2.93 1.92 4.45 2.35 6 2.58C9.28 3.25 12.98 4 14.85 6.96C16.29 9.24 16.5 12.56 15.5 17.05C11.56 14.21 7.12 10.34 5.74 5.91C5.67 5.73 5.54 5.58 5.37 5.5C5.2 5.41 5 5.4 4.82 5.46C4.63 5.51 4.48 5.64 4.39 5.8C4.29 5.97 4.27 6.17 4.31 6.35C5.73 10.94 9.95 14.8 13.86 17.7C10.14 17.95 7.21 17.05 5.15 15.01L5.13 15.01Z" fill="#359740" fill-opacity="1.000000" fill-rule="nonzero"/>
</svg>
