<svg width="28.000000" height="28.000000" viewBox="0 0 28 28" fill="none" xmlns="http://www.w3.org/2000/svg" xmlns:xlink="http://www.w3.org/1999/xlink">
	<desc>
			Created with Pixso.
	</desc>
	<defs>
		<clipPath id="clip40_201">
			<rect id="Frame" rx="-0.593750" width="20.187500" height="20.187500" transform="translate(4.156250 4.156250)" fill="white" fill-opacity="0"/>
		</clipPath>
		<clipPath id="clip23_2698">
			<rect id="Frame 60" width="28.000000" height="28.000000" fill="white" fill-opacity="0"/>
		</clipPath>
	</defs>
	<g clip-path="url(#clip23_2698)">
		<rect id="Frame" rx="-0.593750" width="20.187500" height="20.187500" transform="translate(4.156250 4.156250)" fill="#FFFFFF" fill-opacity="0"/>
		<g clip-path="url(#clip40_201)">
			<path id="Vector" d="M22.38 9.17C21.13 7.27 19.18 6.07 17.09 5.73C17.11 5.59 17.09 5.43 17.01 5.29C16.86 5.03 16.55 4.88 16.24 4.94L11.91 5.81L11.32 4.03C11.23 3.77 11 3.59 10.72 3.56C10.44 3.53 10.17 3.66 10.03 3.9L8.74 6.03C7.86 5.38 6.78 4.94 5.69 4.94C5.3 4.94 4.98 5.25 4.98 5.63C4.98 6.01 5.3 6.32 5.69 6.32C6.52 6.32 7.35 6.7 8 7.22L3.88 9.88C3.61 10.05 3.5 10.36 3.59 10.65C3.68 10.94 3.96 11.14 4.27 11.14L6.17 11.14L5 15.09C4.92 15.4 5.05 15.71 5.32 15.87C5.44 15.94 5.57 15.96 5.69 15.96C5.71 18.22 6.74 20.4 8.64 21.81C11.46 23.88 15.56 24.94 20.83 24.94C21.03 24.94 21.23 24.94 21.43 24.93C23.08 24.91 24.48 23.68 24.69 22.09C25.37 16.89 24.59 12.54 22.38 9.17ZM23.28 21.92C23.16 22.84 22.36 23.54 21.41 23.55C16.18 23.63 12.17 22.68 9.51 20.71C7.65 19.33 6.81 17.02 7.23 14.8L8.25 13.85C7.31 16.12 7.99 18.72 9.95 20.17C12.38 21.96 16.04 22.87 20.83 22.87C21.02 22.87 21.21 22.87 21.41 22.86C21.8 22.86 22.12 22.54 22.11 22.16C22.1 21.78 21.78 21.49 21.4 21.49C21.39 21.49 21.39 21.49 21.38 21.49C16.65 21.57 13.08 20.74 10.82 19.07C9.29 17.95 8.82 15.85 9.71 14.08L11.55 16.4C11.68 16.56 11.89 16.66 12.11 16.66C12.19 16.66 12.26 16.64 12.33 16.62C12.63 16.53 12.82 16.27 12.82 15.97L12.82 11.06L17.89 10.45C18.21 10.4 18.47 10.16 18.51 9.85C18.56 9.54 18.38 9.25 18.08 9.12L15.07 7.93L15.98 7.01C18.01 7.05 19.99 8.08 21.18 9.9C23.2 13 23.91 17.04 23.28 21.92ZM8.94 8.27C8.95 8.26 8.95 8.25 8.96 8.25C9.15 8.54 9.26 8.83 9.26 9.07C9.26 9.45 9.58 9.76 9.97 9.76C10.36 9.76 10.68 9.45 10.68 9.07C10.68 8.42 10.34 7.68 9.78 7.01L10.45 5.92L10.75 6.83C10.87 7.16 11.22 7.36 11.57 7.29L14.26 6.75L13.3 7.71C13.14 7.87 13.07 8.11 13.12 8.33C13.17 8.55 13.33 8.74 13.55 8.83L15.01 9.4L12.01 9.77C11.67 9.81 11.39 10.11 11.39 10.45L11.39 13.94L9.61 11.7C9.49 11.54 9.3 11.45 9.1 11.43C9.09 11.43 9.06 11.43 9.05 11.43C8.87 11.43 8.69 11.5 8.55 11.63L7.11 12.98L7.8 10.63C7.87 10.43 7.82 10.21 7.69 10.04C7.55 9.87 7.34 9.76 7.12 9.76L6.62 9.76L8.94 8.27Z" fill="#359740" fill-opacity="1.000000" fill-rule="nonzero"/>
			<path id="Vector" d="M15.16 13.7C15.31 13.83 15.48 13.9 15.67 13.9C15.86 13.9 16.03 13.83 16.18 13.7C16.45 13.43 16.45 13 16.18 12.73L15.46 12.04C15.19 11.77 14.74 11.77 14.46 12.04C14.18 12.31 14.18 12.74 14.46 13.01L15.16 13.7Z" fill="#359740" fill-opacity="1.000000" fill-rule="nonzero"/>
			<path id="Vector" d="M19.44 13.01C19.58 13.14 19.76 13.21 19.95 13.21C20.13 13.21 20.31 13.14 20.45 13.01C20.73 12.74 20.73 12.31 20.45 12.04L19.74 11.35C19.46 11.08 19.01 11.08 18.73 11.35C18.46 11.62 18.46 12.05 18.73 12.32L19.44 13.01Z" fill="#359740" fill-opacity="1.000000" fill-rule="nonzero"/>
			<path id="Vector" d="M16.18 17.55L15.46 16.86C15.19 16.59 14.74 16.59 14.46 16.86C14.18 17.13 14.18 17.56 14.46 17.83L15.17 18.52C15.31 18.66 15.48 18.73 15.67 18.73C15.86 18.73 16.03 18.66 16.18 18.53C16.45 18.26 16.45 17.82 16.18 17.55Z" fill="#359740" fill-opacity="1.000000" fill-rule="nonzero"/>
			<path id="Vector" d="M18.01 16.46C18.16 16.59 18.33 16.66 18.52 16.66C18.71 16.66 18.88 16.59 19.03 16.46C19.3 16.19 19.3 15.76 19.03 15.49L18.31 14.8C18.04 14.53 17.59 14.53 17.31 14.8C17.03 15.07 17.03 15.5 17.31 15.77L18.01 16.46Z" fill="#359740" fill-opacity="1.000000" fill-rule="nonzero"/>
			<path id="Vector" d="M20.86 16.46L21.58 17.15C21.72 17.28 21.9 17.35 22.08 17.35C22.27 17.35 22.45 17.28 22.59 17.15C22.87 16.88 22.87 16.44 22.59 16.18L21.88 15.49C21.6 15.22 21.15 15.22 20.87 15.49C20.59 15.75 20.59 16.19 20.86 16.46Z" fill="#359740" fill-opacity="1.000000" fill-rule="nonzero"/>
			<path id="Vector" d="M19.74 18.24C19.46 17.97 19.01 17.97 18.73 18.24C18.46 18.51 18.46 18.94 18.73 19.21L19.45 19.9C19.58 20.04 19.76 20.11 19.95 20.11C20.13 20.11 20.31 20.04 20.45 19.91C20.73 19.64 20.73 19.2 20.45 18.93L19.74 18.24Z" fill="#359740" fill-opacity="1.000000" fill-rule="nonzero"/>
		</g>
	</g>
</svg>
