<svg width="32.000000" height="32.000000" viewBox="0 0 32 32" fill="none" xmlns="http://www.w3.org/2000/svg" xmlns:xlink="http://www.w3.org/1999/xlink">
	<desc>
			Created with Pixso.
	</desc>
	<defs>
		<clipPath id="clip23_2635">
			<rect id="Flower" width="32.000000" height="32.000000" fill="white" fill-opacity="0"/>
		</clipPath>
	</defs>
	<rect id="Flower" width="32.000000" height="32.000000" fill="#FFFFFF" fill-opacity="0"/>
	<g clip-path="url(#clip23_2635)">
		<path id="Vector" d="M9 12.24C8.42 12.59 7.81 12.8 7.16 12.87C6.72 12.91 6.31 12.86 5.96 12.73C5.39 12.5 4.96 12.1 4.7 11.52C4.64 11.39 4.64 11.24 4.7 11.1C4.94 10.51 5.35 10.1 5.92 9.85C6.26 9.7 6.68 9.65 7.11 9.68C8.02 9.75 8.84 10.09 9.64 10.7L10.07 10.69C10.16 10.32 10.35 9.98 10.63 9.7L10.4 9.32C9.47 8.96 8.74 8.43 8.22 7.7C7.95 7.35 7.79 6.97 7.74 6.6C7.64 5.98 7.79 5.42 8.15 4.91C8.24 4.79 8.37 4.71 8.52 4.69C9.14 4.61 9.71 4.75 10.2 5.13C10.5 5.35 10.76 5.68 10.95 6.07C11.34 6.89 11.45 7.78 11.32 8.77L11.55 9.15C11.92 9.04 12.32 9.03 12.69 9.13L12.9 8.75C12.74 7.76 12.84 6.87 13.2 6.05C13.38 5.65 13.63 5.31 13.92 5.08C14.41 4.7 14.97 4.53 15.6 4.6C15.74 4.61 15.87 4.69 15.97 4.81C16.35 5.31 16.51 5.87 16.43 6.48C16.39 6.85 16.23 7.24 15.98 7.61C15.61 8.14 15.14 8.58 14.56 8.93C14.33 9.06 14.09 9.18 13.83 9.29L13.62 9.66C13.76 9.79 13.88 9.93 13.99 10.1C14.09 10.27 14.15 10.45 14.2 10.63L14.64 10.63C15.42 10 16.23 9.64 17.14 9.54C17.57 9.49 17.99 9.54 18.34 9.68C18.91 9.9 19.33 10.31 19.59 10.88C19.65 11.02 19.65 11.17 19.6 11.31C19.4 11.79 19.09 12.16 18.67 12.4C18.58 12.46 18.48 12.51 18.38 12.55C18.04 12.7 17.62 12.75 17.18 12.72C16.28 12.65 15.46 12.31 14.66 11.7L14.23 11.71C14.15 12.07 13.95 12.42 13.68 12.69C13.76 12.83 13.84 12.96 13.92 13.09C14.84 13.45 15.56 13.97 16.08 14.69C16.35 15.05 16.51 15.43 16.56 15.8C16.62 16.18 16.58 16.53 16.46 16.87C16.85 17.42 17.25 17.94 17.64 18.44C17.69 18.04 17.8 17.66 18 17.3C18.43 16.51 19.15 15.93 20.08 15.65C20.81 15.43 21.57 15.39 22.32 15.53C22.51 15.57 22.67 15.7 22.74 15.89C22.8 16.07 22.75 16.28 22.62 16.42C22.24 16.82 21.77 17.53 21.66 18.24C21.5 19.36 20.89 20.01 20.2 20.42C19.99 20.54 19.79 20.63 19.58 20.72C21.27 22.53 22.82 23.73 24.12 24.21C24.4 24.32 24.54 24.62 24.44 24.9C24.39 25.02 24.31 25.12 24.21 25.18C24.07 25.26 23.91 25.27 23.75 25.22C22.81 24.87 21.85 24.25 20.9 23.47L20.83 23.51C20.44 23.84 20.01 24.18 19.53 24.46C18.63 25 17.56 25.35 16.32 25.1C15.44 24.93 14.25 25.16 13.5 25.41C13.3 25.48 13.07 25.42 12.93 25.26C12.8 25.1 12.76 24.86 12.86 24.67C13.27 23.83 13.86 23.07 14.62 22.41C15.56 21.58 16.64 21.07 17.74 20.94C17.93 20.92 18.12 20.91 18.3 20.91C18.28 20.89 18.26 20.86 18.25 20.84C17.33 19.81 16.49 18.73 15.74 17.71C15.13 17.78 14.58 17.64 14.1 17.27C13.8 17.05 13.54 16.72 13.35 16.33C12.97 15.51 12.85 14.62 12.98 13.63L12.75 13.25C12.38 13.37 11.98 13.37 11.61 13.27L11.4 13.65C11.55 14.64 11.46 15.53 11.1 16.35C10.92 16.75 10.67 17.09 10.38 17.32C10.29 17.39 10.2 17.45 10.11 17.51C9.69 17.75 9.22 17.86 8.71 17.8C8.56 17.78 8.43 17.71 8.33 17.59C7.95 17.09 7.79 16.53 7.87 15.92C7.92 15.55 8.07 15.16 8.32 14.79C8.84 14.05 9.54 13.5 10.47 13.12L10.68 12.73C10.54 12.6 10.42 12.46 10.32 12.29C10.21 12.12 10.15 11.94 10.1 11.76L9.67 11.77C9.44 11.95 9.23 12.11 9 12.24ZM7.03 10.75C6.76 10.72 6.52 10.75 6.33 10.84C6.1 10.93 5.93 11.08 5.8 11.29C5.93 11.49 6.11 11.63 6.35 11.73C6.54 11.8 6.78 11.83 7.05 11.8C7.59 11.74 8.09 11.56 8.57 11.25C8.07 10.95 7.57 10.79 7.03 10.75ZM15.09 7C15.25 6.78 15.34 6.56 15.36 6.36C15.39 6.11 15.35 5.88 15.24 5.66C14.99 5.67 14.78 5.76 14.58 5.92C14.43 6.04 14.28 6.24 14.18 6.49C13.96 6.98 13.86 7.5 13.89 8.08C14.39 7.8 14.79 7.45 15.09 7ZM17.26 11.66C17.53 11.68 17.76 11.65 17.95 11.57C18.18 11.47 18.36 11.32 18.49 11.12C18.36 10.91 18.17 10.77 17.94 10.68C17.75 10.6 17.51 10.58 17.24 10.61C16.7 10.67 16.21 10.85 15.72 11.16C16.21 11.45 16.72 11.61 17.26 11.66ZM20.61 18.09C20.69 17.53 20.93 16.99 21.21 16.53C20.93 16.55 20.66 16.59 20.39 16.68C19.93 16.82 19.3 17.13 18.93 17.81C18.72 18.21 18.5 18.84 18.92 19.83C19.99 19.46 20.48 18.97 20.61 18.09ZM9.19 15.4C9.04 15.62 8.95 15.85 8.92 16.05C8.9 16.3 8.93 16.53 9.05 16.74C9.29 16.73 9.51 16.65 9.7 16.49C9.86 16.36 10 16.16 10.11 15.92C10.33 15.42 10.43 14.9 10.4 14.33C9.89 14.6 9.5 14.96 9.19 15.4ZM9.56 5.99C9.36 5.84 9.14 5.76 8.89 5.75C8.79 5.97 8.75 6.19 8.79 6.45C8.82 6.65 8.92 6.87 9.07 7.09C9.4 7.53 9.8 7.87 10.31 8.13C10.32 7.55 10.21 7.04 9.97 6.55C9.86 6.3 9.72 6.11 9.56 5.99ZM17.86 22C16.98 22.11 16.1 22.53 15.31 23.21C15.01 23.48 14.73 23.76 14.49 24.07C15.17 23.96 15.9 23.93 16.53 24.06C17.66 24.28 18.73 23.89 20.07 22.76C19.5 22.12 18.8 21.89 17.86 22ZM14.73 16.42C14.93 16.57 15.15 16.65 15.39 16.65C15.5 16.43 15.54 16.21 15.5 15.96C15.47 15.76 15.37 15.54 15.21 15.32C14.89 14.88 14.49 14.53 13.98 14.27C13.97 14.85 14.08 15.37 14.31 15.85C14.42 16.1 14.57 16.29 14.73 16.42ZM12.69 12.12C13.2 11.82 13.36 11.16 13.06 10.65C12.76 10.15 12.1 9.98 11.6 10.28C11.09 10.58 10.92 11.24 11.22 11.75C11.53 12.25 12.19 12.42 12.69 12.12Z" fill="#359740" fill-opacity="1.000000" fill-rule="nonzero"/>
	</g>
</svg>
